<?xml version="1.0" encoding="utf-8"?>
<!-- Generator: Adobe Illustrator 24.3.0, SVG Export Plug-In . SVG Version: 6.00 Build 0)  -->
<svg version="1.1" id="Layer_1" xmlns="http://www.w3.org/2000/svg" xmlns:xlink="http://www.w3.org/1999/xlink" x="0px" y="0px"
	 viewBox="0 0 612 290" style="enable-background:new 0 0 612 290;" xml:space="preserve">
<style type="text/css">
	.st0{fill:#EE7A22;}
	.st1{fill:#5A86C4;}
	.st2{fill-rule:evenodd;clip-rule:evenodd;fill:#5A86C4;}
	.st3{fill-rule:evenodd;clip-rule:evenodd;fill:#FFFFFF;}
	.st4{fill:none;stroke:#231F20;stroke-miterlimit:10;}
	.st5{fill:#E42026;}
	.st6{fill:#F6F6F6;}
	.st7{fill:#E6E4E5;}
	.st8{fill:#B71721;}
</style>
<g>
	<path class="st0" d="M175.35,213.34c-0.07,0.21,0,0.35,0.24,0.35h4.54c0.22,0.02,0.41-0.13,0.45-0.35l1.32-4.12h8.25l1.35,4.12
		c0.04,0.21,0.23,0.36,0.45,0.35h4.5c0.24,0,0.32-0.14,0.24-0.35l-7.97-22.86c-0.05-0.21-0.24-0.35-0.45-0.35h-4.36
		c-0.21-0.01-0.4,0.14-0.45,0.35L175.35,213.34z M183.32,204.89l2.67-8.24h0.1l2.67,8.24H183.32z M207.64,208.28
		c1.25,3.85,4.26,5.79,8.38,5.79c3.99,0,6.9-1.94,8.21-5.23c0.09-0.12,0.06-0.29-0.06-0.37c-0.03-0.02-0.07-0.04-0.11-0.05
		l-3.78-1.7c-0.15-0.1-0.36-0.05-0.45,0.11c-0.01,0.02-0.02,0.04-0.03,0.06c-0.53,1.61-2.05,2.69-3.74,2.67
		c-1.65,0.09-3.13-1-3.54-2.6c-0.28-0.87-0.38-1.7-0.38-5.06s0.11-4.2,0.38-5.06c0.41-1.6,1.89-2.69,3.54-2.6
		c1.7-0.03,3.21,1.06,3.74,2.67c0.06,0.17,0.25,0.26,0.42,0.2c0.02-0.01,0.04-0.02,0.06-0.03l3.78-1.7
		c0.15-0.03,0.24-0.16,0.22-0.31c-0.01-0.04-0.02-0.08-0.05-0.11c-1.32-3.29-4.23-5.23-8.21-5.23c-4.12,0-7.14,1.94-8.38,5.79
		c-0.52,1.52-0.66,2.74-0.66,6.38C206.98,205.54,207.12,206.76,207.64,208.28L207.64,208.28z M234.45,214.07
		c3.53,0,6.31-1.66,7.28-4.71c0.4-1.31,0.59-2.68,0.55-4.05c0.04-1.37-0.15-2.74-0.55-4.06c-0.97-3.04-3.74-4.71-7.28-4.71
		c-3.53,0-6.3,1.67-7.27,4.71c-0.4,1.31-0.59,2.68-0.55,4.05c-0.03,1.37,0.15,2.74,0.55,4.05
		C228.15,212.4,230.92,214.07,234.45,214.07 M234.45,209.98c-1.18,0.08-2.26-0.66-2.6-1.8c-0.26-0.93-0.37-1.91-0.32-2.88
		c-0.06-0.97,0.05-1.94,0.32-2.88c0.54-1.43,2.14-2.16,3.57-1.62c0.75,0.28,1.34,0.87,1.62,1.62c0.26,0.93,0.37,1.91,0.31,2.88
		c0.06,0.97-0.05,1.94-0.31,2.88C236.71,209.31,235.63,210.06,234.45,209.98L234.45,209.98z M252.78,213.89
		c0.18,0.01,0.34-0.13,0.35-0.31c0-0.01,0-0.03,0-0.04v-3.43c0.01-0.18-0.13-0.34-0.31-0.35c-0.01,0-0.03,0-0.04,0h-0.73
		c-1.01,0-1.45-0.45-1.45-1.6v-17.7c0.01-0.18-0.13-0.34-0.31-0.35c-0.01,0-0.03,0-0.04,0h-4.16c-0.18-0.01-0.33,0.13-0.35,0.31
		c0,0.01,0,0.03,0,0.04v18.09c0,3.71,1.49,5.34,5.2,5.34H252.78z M263.17,213.89c0.18,0.01,0.34-0.13,0.35-0.31v-0.04v-3.43
		c0.01-0.18-0.13-0.34-0.31-0.35c-0.01,0-0.03,0-0.04,0h-0.73c-1.01,0-1.45-0.45-1.45-1.6v-17.7c0.01-0.18-0.13-0.34-0.31-0.35
		c-0.01,0-0.03,0-0.04,0h-4.16c-0.18-0.01-0.34,0.13-0.35,0.31v0.04v18.09c0,3.71,1.49,5.34,5.2,5.34H263.17z M273.91,214.07
		c2.67,0.1,5.25-0.92,7.14-2.81c0.13-0.12,0.13-0.32,0.01-0.45c-0.01-0.01-0.03-0.03-0.05-0.04l-2.29-2.15
		c-0.14-0.17-0.31-0.14-0.48,0c-1.03,0.99-2.42,1.52-3.85,1.49c-1.53,0.16-2.96-0.76-3.46-2.22c-0.11-0.3-0.18-0.62-0.21-0.94
		c-0.02-0.1,0.05-0.19,0.15-0.21c0.02,0,0.04,0,0.06,0h10.15c0.18,0.02,0.35-0.11,0.38-0.29c0-0.02,0-0.04,0-0.05
		c0.09-1.74-0.1-3.48-0.56-5.16c-0.97-2.95-3.53-4.71-7.24-4.71c-3.57,0-6.24,1.73-7.21,4.75c-0.41,1.3-0.59,2.66-0.56,4.02
		c-0.03,1.35,0.17,2.7,0.59,3.99C267.47,212.3,270.1,214.07,273.91,214.07 M270.93,203.53c-0.1,0.02-0.19-0.05-0.21-0.15
		c0-0.02,0-0.04,0-0.06c-0.01-0.42,0.05-0.84,0.17-1.24c0.68-1.55,2.48-2.26,4.03-1.58c0.71,0.31,1.27,0.87,1.58,1.58
		c0.12,0.4,0.18,0.82,0.17,1.25c0.02,0.1-0.05,0.19-0.15,0.21c-0.02,0-0.04,0-0.06,0L270.93,203.53z M291.1,220.3
		c5.51,0,8.35-2.81,8.35-8.42v-14.62c0.01-0.18-0.13-0.34-0.31-0.35c-0.01,0-0.03,0-0.04,0h-4.16c-0.18-0.01-0.34,0.13-0.35,0.31
		c0,0.01,0,0.03,0,0.04v1.22h-0.03c-0.99-1.36-2.62-2.1-4.3-1.94c-2.6-0.15-4.94,1.54-5.61,4.05c-0.41,1.36-0.6,2.78-0.55,4.2
		c-0.04,1.42,0.14,2.84,0.55,4.2c0.68,2.51,3.02,4.2,5.61,4.05c1.67,0.16,3.31-0.58,4.3-1.94h0.03v1.42c0,2.46-1.04,3.71-3.36,3.71
		c-1.3-0.02-2.54-0.54-3.46-1.45c-0.11-0.15-0.31-0.18-0.46-0.07c-0.03,0.02-0.05,0.04-0.07,0.07l-2.46,2.49
		c-0.15,0.12-0.18,0.34-0.07,0.49c0.01,0.01,0.02,0.02,0.03,0.03C286.45,219.44,288.73,220.35,291.1,220.3L291.1,220.3z
		 M291.79,208.94c-1.16,0.08-2.2-0.68-2.49-1.8c-0.2-0.77-0.3-1.56-0.28-2.35c-0.02-0.79,0.07-1.59,0.28-2.36
		c0.29-1.12,1.34-1.88,2.49-1.8c1.16-0.1,2.22,0.67,2.49,1.8c0.24,0.76,0.34,1.56,0.32,2.36c0.03,0.8-0.08,1.59-0.32,2.35
		C294.01,208.27,292.95,209.04,291.79,208.94L291.79,208.94z M310.98,214.07c2.67,0.1,5.25-0.92,7.14-2.81
		c0.13-0.12,0.13-0.32,0.01-0.45c-0.01-0.02-0.03-0.03-0.05-0.04l-2.29-2.15c-0.14-0.17-0.32-0.14-0.48,0
		c-1.03,0.99-2.42,1.52-3.85,1.49c-1.53,0.16-2.97-0.76-3.46-2.22c-0.11-0.3-0.18-0.62-0.21-0.94c-0.02-0.1,0.05-0.19,0.15-0.21
		c0.02,0,0.04,0,0.06,0h10.15c0.18,0.02,0.36-0.11,0.38-0.29c0-0.02,0-0.04,0-0.05c0.1-1.74-0.09-3.48-0.56-5.16
		c-0.97-2.95-3.54-4.71-7.24-4.71c-3.57,0-6.24,1.73-7.21,4.75c-0.41,1.3-0.59,2.66-0.55,4.02c-0.03,1.35,0.17,2.7,0.59,3.99
		C304.54,212.3,307.17,214.07,310.98,214.07L310.98,214.07z M308,203.53c-0.1,0.02-0.19-0.05-0.21-0.15c0-0.02,0-0.04,0-0.06
		c-0.01-0.42,0.05-0.84,0.17-1.25c0.68-1.55,2.48-2.26,4.03-1.58c0.71,0.31,1.27,0.87,1.58,1.58c0.12,0.41,0.18,0.83,0.17,1.25
		c0.02,0.1-0.05,0.19-0.15,0.21c-0.02,0-0.04,0-0.06,0H308z M322.14,213.34c-0.01,0.18,0.13,0.34,0.31,0.35c0.01,0,0.03,0,0.04,0
		h8.77c4.12,0,7-1.77,8.14-5.3c0.42-1.32,0.62-2.63,0.62-6.48c0-3.85-0.21-5.16-0.62-6.48c-1.14-3.54-4.02-5.3-8.14-5.3h-8.77
		c-0.18-0.01-0.33,0.13-0.35,0.31c0,0.01,0,0.03,0,0.04L322.14,213.34z M327.23,208.93v-14.06c-0.02-0.1,0.05-0.19,0.15-0.21
		c0.02,0,0.04,0,0.06,0h2.67c2.36,0,3.78,0.69,4.37,2.6c0.24,0.69,0.38,1.59,0.38,4.64s-0.14,3.95-0.38,4.64
		c-0.59,1.9-2.01,2.6-4.37,2.6h-2.67c-0.1,0.02-0.19-0.05-0.21-0.16C327.23,208.97,327.23,208.96,327.23,208.93L327.23,208.93z
		 M351.07,214.06c2.67,0.1,5.25-0.92,7.14-2.81c0.13-0.12,0.13-0.32,0.01-0.45c-0.01-0.01-0.03-0.03-0.05-0.04l-2.29-2.15
		c-0.14-0.17-0.31-0.14-0.48,0c-1.03,0.99-2.42,1.52-3.85,1.49c-1.53,0.16-2.97-0.76-3.46-2.22c-0.11-0.3-0.18-0.62-0.21-0.94
		c-0.02-0.1,0.05-0.19,0.15-0.21c0.02,0,0.04,0,0.06,0h10.15c0.19,0.02,0.36-0.11,0.38-0.29c0-0.02,0-0.04,0-0.05
		c0.1-1.74-0.09-3.48-0.56-5.16c-0.97-2.95-3.53-4.71-7.24-4.71c-3.57,0-6.24,1.73-7.21,4.75c-0.41,1.3-0.59,2.66-0.56,4.02
		c-0.03,1.35,0.17,2.7,0.59,3.99C344.62,212.3,347.26,214.07,351.07,214.06L351.07,214.06z M348.09,203.53
		c-0.1,0.02-0.19-0.05-0.21-0.15c0-0.02,0-0.04,0-0.06c-0.01-0.42,0.05-0.84,0.17-1.24c0.68-1.55,2.48-2.26,4.03-1.58
		c0.71,0.31,1.27,0.87,1.58,1.58c0.12,0.4,0.18,0.82,0.17,1.25c0.01,0.1-0.05,0.19-0.15,0.21c-0.02,0-0.04,0-0.06,0L348.09,203.53z
		 M377.61,213.69c0.12,0.01,0.21-0.08,0.22-0.2c0-0.05-0.01-0.11-0.05-0.15l-5.86-10.15l5.13-5.93c0.08-0.07,0.1-0.19,0.03-0.27
		c-0.04-0.05-0.11-0.08-0.17-0.07h-4.44c-0.26,0-0.51,0.13-0.66,0.35l-4.82,5.93v-12.72c0.01-0.18-0.13-0.34-0.31-0.35
		c-0.01,0-0.03,0-0.04,0h-4.16c-0.18-0.01-0.34,0.13-0.35,0.31c0,0.01,0,0.03,0,0.04v22.86c-0.01,0.18,0.13,0.33,0.31,0.35
		c0.01,0,0.02,0,0.04,0h4.16c0.18,0.01,0.33-0.13,0.35-0.31c0-0.01,0-0.03,0-0.04v-4.6l1.73-2.15l3.74,6.76
		c0.09,0.21,0.29,0.35,0.53,0.35H377.61z M395.14,213.69c0.18,0.01,0.33-0.13,0.35-0.31c0-0.01,0-0.03,0-0.04v-10.57
		c0-3.67-2.01-6.24-5.72-6.24c-1.67-0.1-3.28,0.61-4.33,1.91h-0.04v-7.97c0.01-0.18-0.13-0.33-0.31-0.35c-0.01,0-0.03,0-0.04,0
		h-4.16c-0.18-0.01-0.34,0.13-0.35,0.31c0,0.01,0,0.03,0,0.04v22.86c-0.01,0.18,0.13,0.34,0.31,0.35c0.01,0,0.03,0,0.04,0h4.16
		c0.18,0.01,0.33-0.13,0.35-0.31c0-0.01,0-0.03,0-0.04v-9.63c0-1.84,0.97-3.05,2.63-3.05c1.73,0,2.6,1.21,2.6,3.05v9.63
		c-0.01,0.18,0.13,0.34,0.31,0.35c0.01,0,0.03,0,0.04,0H395.14z M406.71,214.07c3.54,0,6.31-1.66,7.28-4.71
		c0.4-1.31,0.59-2.68,0.56-4.05c0.03-1.37-0.15-2.74-0.56-4.06c-0.97-3.04-3.74-4.71-7.27-4.71c-3.54,0-6.31,1.67-7.28,4.71
		c-0.4,1.31-0.59,2.68-0.55,4.05c-0.03,1.37,0.15,2.74,0.55,4.05C400.4,212.4,403.18,214.07,406.71,214.07L406.71,214.07z
		 M406.71,209.98c-1.18,0.08-2.26-0.67-2.6-1.8c-0.26-0.93-0.37-1.91-0.31-2.88c-0.05-0.97,0.05-1.94,0.31-2.88
		c0.54-1.43,2.14-2.16,3.57-1.62c0.75,0.28,1.34,0.87,1.62,1.62c0.26,0.93,0.37,1.91,0.31,2.88c0.06,0.97-0.05,1.94-0.31,2.88
		C408.97,209.31,407.89,210.06,406.71,209.98L406.71,209.98z M426.35,208.28c1.25,3.85,4.26,5.79,8.38,5.79
		c3.99,0,6.9-1.94,8.21-5.23c0.09-0.12,0.06-0.29-0.06-0.37c-0.03-0.02-0.07-0.04-0.11-0.05l-3.77-1.7
		c-0.15-0.09-0.36-0.05-0.45,0.11c-0.01,0.02-0.02,0.04-0.03,0.06c-0.53,1.61-2.05,2.69-3.74,2.67c-1.65,0.09-3.13-1-3.53-2.6
		c-0.28-0.87-0.38-1.7-0.38-5.06c0-3.36,0.11-4.2,0.38-5.06c0.41-1.6,1.89-2.68,3.53-2.6c1.7-0.03,3.21,1.06,3.74,2.67
		c0.06,0.17,0.25,0.26,0.42,0.2c0.02-0.01,0.04-0.02,0.06-0.03l3.77-1.7c0.15-0.03,0.24-0.16,0.22-0.31
		c-0.01-0.04-0.02-0.08-0.05-0.11c-1.32-3.29-4.23-5.23-8.21-5.23c-4.12,0-7.14,1.94-8.38,5.79c-0.52,1.52-0.66,2.74-0.66,6.38
		C425.69,205.53,425.83,206.76,426.35,208.28L426.35,208.28z M453.17,214.06c3.53,0,6.31-1.66,7.27-4.71
		c0.4-1.31,0.59-2.68,0.56-4.05c0.04-1.37-0.15-2.74-0.56-4.05c-0.97-3.04-3.74-4.71-7.27-4.71c-3.54,0-6.3,1.67-7.28,4.71
		c-0.4,1.31-0.59,2.68-0.55,4.05c-0.03,1.37,0.15,2.74,0.55,4.05C446.86,212.4,449.64,214.07,453.17,214.06L453.17,214.06z
		 M453.17,209.97c-1.18,0.08-2.26-0.67-2.6-1.8c-0.26-0.93-0.37-1.91-0.31-2.88c-0.06-0.97,0.05-1.94,0.31-2.88
		c0.54-1.43,2.14-2.16,3.57-1.62c0.75,0.28,1.34,0.87,1.62,1.62c0.26,0.93,0.37,1.91,0.32,2.88c0.06,0.97-0.05,1.94-0.32,2.88
		C455.43,209.31,454.35,210.06,453.17,209.97L453.17,209.97z M489.2,213.68c0.18,0.01,0.33-0.13,0.35-0.31c0-0.01,0-0.03,0-0.04
		v-10.56c0-3.71-2.04-6.24-5.99-6.24c-1.98-0.09-3.9,0.68-5.27,2.11h-0.03c-1.04-1.43-2.74-2.23-4.5-2.11
		c-1.67-0.1-3.28,0.61-4.33,1.91h-0.04v-1.18c0.01-0.18-0.13-0.34-0.31-0.35c-0.01,0-0.03,0-0.04,0h-4.16
		c-0.18-0.01-0.33,0.13-0.35,0.31c0,0.01,0,0.03,0,0.04v16.08c-0.01,0.18,0.13,0.34,0.31,0.35c0.01,0,0.03,0,0.04,0h4.16
		c0.18,0.01,0.34-0.13,0.35-0.31c0-0.01,0-0.03,0-0.04v-9.63c0-1.84,0.97-3.05,2.63-3.05c1.73,0,2.6,1.21,2.6,3.05v9.63
		c-0.01,0.18,0.13,0.34,0.31,0.35c0.01,0,0.03,0,0.04,0h4.16c0.18,0.01,0.33-0.13,0.35-0.31c0-0.01,0-0.03,0-0.04v-9.63
		c0-1.84,0.93-3.05,2.6-3.05c1.73,0,2.63,1.21,2.63,3.05v9.63c-0.01,0.18,0.13,0.34,0.31,0.35c0.01,0,0.02,0,0.04,0L489.2,213.68z
		 M498.28,219.92c0.18,0.01,0.33-0.13,0.35-0.31c0-0.01,0-0.03,0-0.04v-7.45h0.03c1.03,1.37,2.7,2.1,4.4,1.94
		c2.6,0.16,4.97-1.51,5.68-4.02c0.45-1.54,0.65-3.14,0.59-4.75c0.07-1.6-0.13-3.21-0.59-4.75c-0.7-2.52-3.08-4.19-5.68-4.02
		c-1.7-0.16-3.37,0.58-4.4,1.94h-0.03v-1.22c0.01-0.18-0.13-0.34-0.31-0.35c-0.01,0-0.02,0-0.04,0h-4.16
		c-0.18-0.01-0.34,0.13-0.35,0.31c0,0.01,0,0.03,0,0.04v22.32c-0.01,0.18,0.13,0.33,0.31,0.35c0.01,0,0.02,0,0.04,0L498.28,219.92z
		 M501.5,209.97c-1.17,0.08-2.24-0.67-2.57-1.8c-0.26-0.93-0.36-1.91-0.31-2.88c-0.05-0.97,0.06-1.94,0.31-2.88
		c0.53-1.43,2.11-2.16,3.53-1.63c0.76,0.28,1.35,0.88,1.63,1.63c0.26,0.94,0.36,1.91,0.31,2.88c0.05,0.97-0.06,1.94-0.31,2.88
		C503.77,209.32,502.69,210.07,501.5,209.97L501.5,209.97z M526.55,213.68c0.18,0.01,0.33-0.13,0.34-0.31c0-0.01,0-0.03,0-0.04
		V202.6c0-4.19-1.97-6.06-7.45-6.06c-2.2-0.1-4.38,0.48-6.24,1.67c-0.16,0.09-0.22,0.3-0.12,0.46c0.01,0.01,0.01,0.02,0.02,0.03
		l1.56,2.74c0.07,0.14,0.23,0.2,0.37,0.13c0.03-0.01,0.06-0.03,0.08-0.06c1.1-0.75,2.41-1.13,3.74-1.08c2.67,0,3.43,0.73,3.43,2.29
		v0.62c0.02,0.1-0.05,0.19-0.15,0.21c-0.02,0-0.04,0-0.06,0h-2.98c-4.16,0-6.96,1.7-6.96,5.4c0,3.57,2.6,5.13,5.58,5.13
		c1.74,0.16,3.45-0.52,4.61-1.84h0.03v1.11c-0.01,0.18,0.13,0.34,0.31,0.35c0.01,0,0.03,0,0.04,0L526.55,213.68z M519.17,210.42
		c-1.59,0-2.42-0.59-2.42-1.77c0-1.32,0.94-1.9,2.98-1.9h2.36c0.1-0.02,0.19,0.05,0.21,0.15c0,0.02,0,0.04,0,0.06v1.14
		C522.29,209.67,521.25,210.43,519.17,210.42L519.17,210.42z M545.75,213.69c0.18,0.01,0.34-0.13,0.35-0.31c0-0.01,0-0.03,0-0.04
		v-10.57c0-3.67-2.01-6.24-5.72-6.24c-1.67-0.1-3.28,0.61-4.33,1.91h-0.03v-1.18c0.01-0.18-0.13-0.34-0.31-0.35
		c-0.01,0-0.03,0-0.04,0h-4.16c-0.18-0.01-0.34,0.13-0.35,0.31c0,0.01,0,0.03,0,0.04v16.08c-0.01,0.18,0.13,0.34,0.31,0.35
		c0.01,0,0.03,0,0.04,0h4.16c0.18,0.01,0.33-0.13,0.35-0.31c0-0.01,0-0.03,0-0.04v-9.63c0-1.84,0.97-3.05,2.63-3.05
		c1.73,0,2.6,1.21,2.6,3.05v9.63c-0.01,0.18,0.13,0.34,0.31,0.35c0.01,0,0.02,0,0.04,0H545.75z M552.54,219.92
		c3.01,0,4.5-1.11,5.92-4.82l6.78-17.85c0.07-0.21-0.03-0.35-0.28-0.35h-4.3c-0.2,0.01-0.38,0.15-0.42,0.35l-3.12,9.7h-0.06
		l-3.35-9.7c-0.04-0.2-0.22-0.34-0.42-0.35h-4.43c-0.21,0-0.35,0.14-0.28,0.35l6.23,15.59l-0.45,1.25c-0.2,1.08-1.19,1.83-2.29,1.73
		h-0.73c-0.18-0.01-0.34,0.13-0.35,0.31c0,0.01,0,0.03,0,0.04v3.4c-0.01,0.18,0.13,0.34,0.31,0.35c0.01,0,0.03,0,0.04,0
		L552.54,219.92z"/>
	<path class="st1" d="M96.73,69.7c34.46,0,62.4,28.17,62.4,62.93c0,34.75-27.94,62.93-62.4,62.93s-62.4-28.17-62.4-62.93
		C34.32,97.87,62.26,69.7,96.73,69.7"/>
	<path class="st2" d="M180.22,137.47c0,25.88,0,24.75,1.27,25.45c1.33,0.45,2.78,0.4,4.08-0.14c1.12-0.7,1.12-1.27,1.12-9.98v-8.16
		h7.73c12.1,0,13.92-0.7,16.45-5.63l0.84-1.55v-16.87l-0.7-1.55c-0.94-1.76-2.35-3.22-4.08-4.22c-2.25-1.12-2.25-1.12-14.77-1.12
		h-11.96L180.22,137.47 M363.45,138.45v24.89L374,163.2l10.55-0.14l1.83-0.7c5.91-2.11,8.58-6.05,8.58-13.21
		c0-4.5-0.7-7.03-2.95-9.7l-0.98-1.27l0.98-1.12c4.36-4.92,3.94-15.89-0.98-20.39c-3.23-2.95-4.78-3.23-17.58-3.23h-10.12
		L363.45,138.45 M463.86,118.63c-1.41,0.7-1.69,1.55-1.69,5.91v4.08h-1.55c-3.09,0-4.64,1.12-4.64,3.23c0,2.25,1.12,3.09,4.22,3.09
		h2.11v10.26c0,12.52,0,12.66,2.53,15.19c1.01,1.12,2.33,1.9,3.8,2.25c3.68,0.56,7.43,0.56,11.11,0c6.33-1.83,9.14-11.11,3.24-11.11
		c-1.76,0-3.23,1.34-3.38,3.09c0,1.55-3.1,2.39-7.31,1.97c-3.8-0.42-3.66-0.14-3.66-12.23v-9.71h6.19c7.45,0,8.44-0.28,8.44-3.09
		c0-2.67-1.55-3.23-8.86-3.23h-5.62v-3.66c0-4.08-0.14-5.06-0.99-5.91C466.54,118.3,465.16,118.25,463.86,118.63 M203.42,120.59
		c1.69,0.7,1.83,1.27,1.83,8.44c0,9.56,0.84,8.86-10.41,8.86l-8.16,0.14v-17.86h7.88C201.45,120.17,202.58,120.31,203.42,120.59
		 M384.13,120.59c5.35,1.69,6.19,11.11,1.13,13.92c-0.7,0.42-1.55,0.42-8.02,0.56h-7.17v-14.9h6.47
		C381.6,120.17,383.28,120.31,384.13,120.59 M228.59,129.03c-1.69,0.7-1.55,0-1.69,16.17c-0.14,18-0.14,17.72,2.53,18.14
		c3.38,0.42,3.66-0.14,3.66-10.97l0.14-8.72l4.5-3.8c5.62-4.64,5.77-4.64,8.3-4.64c3.23,0,4.5,0.84,4.5,3.38
		c0,3.23,2.39,5.06,4.78,3.94c2.53-1.27,2.11-7.59-0.7-10.83c-1.97-2.25-4.08-2.95-8.86-2.95c-4.5,0-5.06,0.28-9.98,4.36l-2.39,1.97
		l-0.14-1.97C232.95,129.45,231.12,127.9,228.59,129.03 M281.75,129.03c-3.34,1.43-6.21,3.77-8.3,6.75
		c-0.84,1.41-0.98,18.7-0.14,20.39c1.78,2.6,4.08,4.8,6.75,6.47c1.27,0.7,20.11,0.7,21.38,0c1.41-0.98,1.84-2.87,0.99-4.36
		c-0.7-1.27-1.13-1.41-10.55-1.41c-9.98-0.14-9.42,0-11.54-2.39c-1.27-1.27-1.27-1.41-1.27-2.81v-1.4h10.83
		c14.06,0,12.94,0.7,12.79-8.02c-0.14-6.89-0.28-7.03-4.5-10.55c-1.46-1.41-3.25-2.42-5.2-2.95
		C289.24,128.56,285.48,128.65,281.75,129.03 M320.27,129.03c-1.83,0.84-1.69-1.27-1.69,23.2c-0.14,24.19-0.14,22.92,1.41,23.77
		c1.2,0.48,2.54,0.37,3.65-0.28c0.98-0.84,0.98-1.41,1.13-8.58l0.14-6.89l1.83,1.69c2.67,2.53,3.09,2.67,7.03,2.67
		c4.08,0,3.66,0.28,9-3.94c5.77-4.5,6.05-5.2,6.05-13.78c0-8.58-0.42-9.56-4.92-13.08c-1.27-0.98-2.53-1.97-2.67-2.11
		c-1.93-1.93-4.59-2.95-7.31-2.81c-3.38,0-4.64,0.56-8.16,3.94l-0.7,0.7l-0.14-0.98C324.49,129.31,322.52,128.04,320.27,129.03
		 M411.82,129.03c-1.41,0.7-1.69,1.55-1.69,5.2c0,3.38,0,3.8,1.69,7.31c0.42,0.98,0.84,1.83,0.84,1.83c0,0.14,1.27,2.81,2.25,4.92
		c0.28,0.7,0.84,1.83,1.13,2.53c0.36,0.92,0.79,1.81,1.27,2.67c0.43,0.82,0.81,1.66,1.12,2.53c0.28,0.7,0.7,1.69,0.99,2.25
		c0.7,1.55,1.26,2.11,2.39,2.25c1.13,0.14,1.27-0.28-0.7,3.8c-0.98,1.83-1.83,3.94-2.11,4.36l-0.42,0.99h-2.53
		c-4.5,0-5.77,0.7-5.77,3.09c0,2.67,1.13,3.09,6.89,3.09c6.05,0,5.48,0.56,9.84-9.14c0.99-2.11,1.41-3.23,3.09-6.89l1.41-3.09
		c1.83-3.94,2.25-4.78,2.67-5.91c0.7-1.69,1.97-4.22,2.81-6.05c0.42-0.84,1.27-2.81,1.97-4.36l1.27-2.67v-3.66
		c0-4.5-0.7-5.91-2.95-5.91c-2.39,0-3.23,1.27-3.23,4.92c0.19,1.45-0.05,2.92-0.7,4.22c-0.42,0.84-0.7,1.55-0.7,1.55l-1.12,2.53
		l-1.1,2.53c0,0.14-0.98,2.11-2.11,4.64c-1.41,3.09-1.83,4.08-2.11,4.64c-0.1,0.37-0.46,0.61-0.84,0.56c-0.56,0-0.7-0.14-2.25-3.52
		c-0.28-0.7-0.98-2.11-1.41-3.09c-1.27-2.81-2.11-4.64-3.23-7.17c-0.56-1.27-1.27-2.81-1.55-3.23c-0.42-1.12-0.57-2.33-0.42-3.52
		c0-3.8-1.69-5.63-4.64-4.22 M510.99,129.03c-1.92,0.67-3.66,1.77-5.08,3.23c-4.08,3.52-4.22,3.94-4.08,15.33
		c0.14,9.7-0.14,8.86,4.36,12.94c3.38,2.95,2.25,2.81,13.64,2.81c11.81,0,12.23-0.14,12.23-3.23c0-2.81-0.56-2.95-10.83-3.09
		c-9.84-0.14-9.42,0-11.39-2.11c-1.05-0.87-1.66-2.15-1.69-3.52v-0.98h10.96c14.2,0,12.94,0.7,12.94-7.45v-5.48l-0.7-1.55
		c-0.84-1.69-1.27-2.11-4.5-4.64c-3.09-2.39-3.52-2.53-9.7-2.53c-2.07-0.12-4.14-0.03-6.19,0.28 M554.71,129.03
		c-2.53,0.7-5.06,2.67-5.35,4.36c-0.02,0.32-0.17,0.63-0.42,0.84c-1.13,0.7,0.14,6.33,1.69,7.88c0.98,0.98,1.69,1.41,5.06,2.95
		c0.84,0.42,2.25,0.98,3.09,1.41c0.84,0.42,2.11,0.99,2.53,1.12c9.7,4.22,10.69,5.06,9.56,7.59c-0.7,1.55-1.12,1.69-8.72,1.69
		c-7.46,0-7.88-0.14-9.14-1.55c-1.37-1.24-3.5-1.14-4.74,0.23c-0.01,0.02-0.03,0.03-0.04,0.05l-0.28,0.28
		c-1.41,2.11,0.42,4.78,4.36,6.61l1.26,0.56h8.16c8.44,0,9.28-0.14,11.39-1.12c4.92-2.53,6.19-10.41,2.11-14.34
		c-1.05-1.12-2.35-1.99-3.8-2.53l-3.94-1.83c-1.13-0.56-2.11-0.98-2.11-0.98s-0.84-0.42-1.83-0.84l-3.52-1.69
		c-0.98-0.42-2.39-1.12-2.95-1.27c-1.55-0.7-2.25-1.27-2.25-2.11c0-1.27,0.7-1.55,6.61-1.55c6.89-0.14,8.02,0.14,9.84,1.55
		c3.66,2.95,7.88-1.27,4.64-4.5c-3.38-3.23-3.94-3.38-13.21-3.38C560.04,128.51,557.37,128.7,554.71,129.03 M292.44,135.5
		c2.55,0.95,4.15,3.48,3.94,6.19v2.39h-17.3v-2.81c0-3.23,0-3.09,2.67-4.92C283.72,134.94,290.19,134.51,292.44,135.5
		 M335.05,135.36c0.45,0.18,0.88,0.41,1.27,0.7c0.89,0.81,1.83,1.56,2.81,2.25c3.38,2.67,3.52,2.95,3.38,8.86
		c-0.14,5.06,0,4.92-2.81,7.17c-0.64,0.48-1.25,1-1.83,1.55c-3.8,3.37-4.5,3.23-9.56-1.55c-3.51-3.23-3.38-3.09-3.38-7.73
		c0-4.5,0.14-4.78,1.97-6.47c0.7-0.56,1.97-1.83,2.95-2.81C332.38,134.94,333.22,134.66,335.05,135.36 M521.67,135.5
		c0.83,0.45,1.59,1.02,2.25,1.69l1.55,1.41l0.14,2.81l0.14,2.81h-17.72l0.14-2.67c0.14-3.09,0.28-3.52,1.97-4.64
		c0.45-0.28,0.88-0.61,1.27-0.98C511.96,134.94,519.83,134.66,521.67,135.5 M385.39,142.53c3.94,2.25,4.36,10.55,0.56,12.94
		c-1.69,1.12-3.38,1.27-9.84,1.27h-6.05v-15.05l7.03,0.14l7.03,0.14l1.27,0.56"/>
	<path class="st3" d="M103.97,126.1c0.14,21.09,0,19.55,1.97,23.62c8.16,16.73,33.61,11.25,34.74-7.31
		c0.54-10.09-7.2-18.71-17.29-19.26c-0.05,0-0.1-0.01-0.15-0.01c-4.24-0.15-8.4,1.13-11.81,3.66l-1.41,0.98v-20.53h-5.91
		L103.97,126.1 M75.28,108.38c-5.5,1.27-10.14,4.93-12.66,9.98c-1.97,3.94-1.97,5.07-1.97,25.32v16.73h5.91v-10.12
		c0-5.63,0-10.12,0.14-10.12c0.42,0.28,0.99,0.56,1.41,0.84c8.08,6.12,19.59,4.52,25.71-3.56c6.06-8,4.56-19.38-3.35-25.55
		C86.2,108.47,80.61,107.18,75.28,108.38 M82.03,114.15c6.49,1.75,10.33,8.43,8.58,14.91c-1.75,6.49-8.43,10.33-14.91,8.58
		c-6.49-1.75-10.33-8.43-8.58-14.91c1.44-5.34,6.29-9.03,11.82-9C79.98,113.73,81.02,113.87,82.03,114.15 M125.62,129.34
		c6.64,1.82,10.55,8.68,8.73,15.32c-1.82,6.64-8.68,10.55-15.32,8.73c-6.64-1.82-10.55-8.68-8.73-15.32
		c1.56-5.69,6.9-9.51,12.79-9.15C123.95,128.92,124.81,129.06,125.62,129.34"/>
</g>
<g>
	<path class="st4" d="M155.33,84.27l-0.3-0.02c0.25,0.13,0.41,0.21,0.45,0.23C155.43,84.41,155.38,84.34,155.33,84.27z"/>
	<path class="st5" d="M75.17,50.56c6.09,0.36,51.51,21.76,59.86,24.7c4.07,1.43,9.03,3.67,13.05,5.56c3.4-3.18,2.85-6.72,3-7.34
		c0.15-0.62-3.2-8.08-3.79-11.5c-0.59-3.42,4.09,0.45,4.09,0.45s14.29,13.47,21.18,19c3.89,3.11,6.43,2.22,7.93,0.79
		c0.15-1.13,0.27-2.27,0.35-3.41c0.51-7.44-1.28-14.43-5.96-20.25c-3.23-4.02-7.35-7.21-11.64-10.02
		c-7.41-4.87-15.43-8.75-23.69-11.9c-6.17-2.35-12.57-4.32-19.15-4.51c-4.58-0.14-9.25,0.64-13.42,2.62
		c-4.38,2.08-8.12,5.55-12.1,8.3c-5.09,3.51-10.75,6.35-16.83,7.21C77.1,50.39,76.13,50.48,75.17,50.56z"/>
	<path class="st6" d="M56.75,77.35c1.13,4.43,4.16,8.13,7.62,11.04c1.99,1.67,4.15,3.12,6.44,4.32c1.3-0.16,2.6-0.33,3.89-0.5
		c3.32-0.45,6.82-0.72,9.97-1.94c5.55-2.16,11.64-3.55,17.61-3.18c0.93,0.06,1.86,0.17,2.78,0.33c4.89,0.9,9.74,2.01,14.6,3.08
		c5.41,1.2,10.82,2.42,16.25,3.57c3.24,0.69,6.5,1.15,9.76,1.67c2.22,0.35,4.47,0.66,6.73,0.67c2.35,0,6.28-0.49,4.98-3.87
		c-2.61-6.78-2.61-8.09-2.61-8.09l0.27-0.22c-2.28-1.16-12.63-6.37-20.01-8.98c-8.34-2.95-53.77-24.34-59.86-24.7h0
		c-3.42,0.28-6.87,0.46-9.78,2.21c-3.37,2.02-5.34,5.78-6.78,9.49C56.74,67.05,55.47,72.36,56.75,77.35z"/>
	<path class="st7" d="M70.81,92.72c6.58,3.49,14.19,5,21.57,4.17c7.29-0.83,14.33-3.83,21.66-3.69c5.94,0.11,11.42,2.21,16.82,4.82
		c6.41,3.09,12.7,6.89,19.48,8.89c1.79,0.53,3.73,0.93,5.49,0.3c2.7-0.96,4.1-3.99,4.74-6.83c1.15-5.11,0.46-11.17-3.52-14.49
		c-0.54-0.44-1.13-0.85-1.56-1.39c-0.04-0.02-0.19-0.1-0.45-0.23l-0.27,0.22c0,0,0,1.31,2.61,8.09c1.3,3.38-2.63,3.87-4.98,3.87
		c-2.25,0-4.5-0.31-6.73-0.67c-3.26-0.52-6.53-0.98-9.76-1.67c-5.43-1.15-10.84-2.38-16.25-3.57c-4.85-1.07-9.71-2.19-14.6-3.08
		c-0.92-0.17-1.85-0.28-2.78-0.33c-5.97-0.37-12.06,1.02-17.61,3.18c-3.15,1.22-6.65,1.49-9.97,1.94
		C73.4,92.39,72.11,92.56,70.81,92.72z"/>
	<path class="st8" d="M147.28,61.99c0.59,3.42,3.94,10.88,3.79,11.5c-0.15,0.62,0.41,4.15-3,7.34c2.99,1.43,5.47,2.66,6.66,3.27
		c0.08,0.04,0.15,0.07,0.22,0.11l0.08,0.04l0.3,0.02c-0.05-0.07-0.09-0.15-0.13-0.22c-0.38-0.72-0.39-1.57-0.38-2.39l0.02-8.72
		c5.75,2.54,9.68,8.05,12.72,13.63c3.04,5.59,5.55,11.59,9.73,16.34c0.22-7,2.26-13.76,3.18-20.67c-1.5,1.43-4.04,2.32-7.93-0.79
		c-6.9-5.53-21.18-19-21.18-19S146.69,58.57,147.28,61.99z"/>
	<path class="st6" d="M159.73,104.71c0,2.59,0.66,5.03,1.82,7.14c1.66-4.02,5.09-1.91,5.09-1.91s1.87,2.56,2.46,0
		c0.59-2.56,4.38-0.85,4.38-0.85c6.65,1.16,8.57-0.15,10.44-3.42c1.45-2.54-1.16-10.18-2.41-13.48c-2.17-1.34-4.72-2.12-7.44-2.12
		C166.16,90.07,159.73,96.63,159.73,104.71z"/>
	<path class="st7" d="M161.55,111.86c2.45,4.48,7.15,7.5,12.53,7.5c7.92,0,14.35-6.56,14.35-14.64c0-5.31-2.77-9.95-6.91-12.52
		c1.25,3.3,3.86,10.95,2.41,13.48c-1.87,3.27-3.79,4.58-10.44,3.42c0,0-3.79-1.71-4.38,0.85c-0.59,2.56-2.46,0-2.46,0
		S163.21,107.83,161.55,111.86z"/>
</g>
</svg>
